<svg width="128" height="128" viewBox="0 0 128 128" fill="none" xmlns="http://www.w3.org/2000/svg" role="img" aria-labelledby="title desc">
  <title id="title">Ingredo logo</title>
  <desc id="desc">A stylized ingredient leaf over a serving bowl.</desc>
  <circle cx="64" cy="64" r="43" fill="#1F3B2D"/>
  <path d="M35 76C40.5 91 52 99 64 99C76 99 87.5 91 93 76H35Z" fill="#D6A84F"/>
  <path d="M42 76C46.5 84.5 54 89 64 89C74 89 81.5 84.5 86 76H42Z" fill="#F7F1E6"/>
  <path d="M64 30C78 39 84 53 80 70C65 69 53 59 50 45C54 38 58 33 64 30Z" fill="#9CBF73"/>
  <path d="M64 30C66 45 65 58 58 70" stroke="#F7F1E6" stroke-width="5" stroke-linecap="round"/>
  <path d="M58 70C54 61 46 55 36 52C35 65 43 74 58 70Z" fill="#BFD98D"/>
  <path d="M58 70C50 63 44 59 36 52" stroke="#F7F1E6" stroke-width="4" stroke-linecap="round"/>
  <path d="M37 76H91" stroke="#F7F1E6" stroke-width="5" stroke-linecap="round"/>
</svg>
